<svg xmlns="http://www.w3.org/2000/svg" viewBox="0 0 24 24" fill="white" width="24" height="24">
  <path d="M19.14 12.94a7.07 7.07 0 0 0 .05-.94 7.07 7.07 0 0 0-.05-.94l2.03-1.58a.5.5 0 0 0 .12-.64l-1.92-3.32a.5.5 0 0 0-.61-.22l-2.39.96a7.07 7.07 0 0 0-1.63-.94l-.36-2.54A.5.5 0 0 0 14.34 2h-4.68a.5.5 0 0 0-.49.42l-.36 2.54c-.6.24-1.15.55-1.63.94l-2.39-.96a.5.5 0 0 0-.61.22L2.27 8.84a.5.5 0 0 0 .12.64l2.03 1.58a7.07 7.07 0 0 0 0 1.88l-2.03 1.58a.5.5 0 0 0-.12.64l1.92 3.32c.14.24.42.34.68.22l2.39-.96c.48.39 1.03.7 1.63.94l.36 2.54c.05.27.27.42.49.42h4.68c.23 0 .44-.15.49-.42l.36-2.54c.6-.24 1.15-.55 1.63-.94l2.39.96c.26.12.54.02.68-.22l1.92-3.32a.5.5 0 0 0-.12-.64l-2.03-1.58zM12 15.5A3.5 3.5 0 1 1 15.5 12 3.5 3.5 0 0 1 12 15.5z"/>
</svg>